<svg width="188" height="49" viewBox="0 0 188 49" fill="none" xmlns="http://www.w3.org/2000/svg">
<g id="Clip path group">
<mask id="mask0_755_104" style="mask-type:luminance" maskUnits="userSpaceOnUse" x="0" y="0" width="188" height="49">
<g id="clip0">
<path id="Vector" d="M187.603 0.112793H0.355469V48.8528H187.603V0.112793Z" fill="white"/>
</g>
</mask>
<g mask="url(#mask0_755_104)">
<g id="Group">
<path id="Vector_2" d="M81.209 32.6102L79.1911 38.8333C79.1647 38.9342 79.1044 39.0229 79.0201 39.0845C78.9362 39.1461 78.8333 39.1769 78.729 39.1718H73.8307C73.5376 39.1718 73.4509 39.0026 73.4963 38.7589L81.9107 14.4736C82.1909 13.6471 82.3304 12.7794 82.3233 11.9068C82.3199 11.835 82.3439 11.7646 82.3906 11.7101C82.4377 11.6556 82.5037 11.6211 82.5751 11.6138H89.3056C89.5162 11.6138 89.5987 11.6551 89.6441 11.8655L99.1931 38.792C99.2757 39.0026 99.2344 39.1718 98.9825 39.1718H93.523C93.4228 39.1887 93.3199 39.1684 93.2339 39.1143C93.148 39.0601 93.0847 38.9762 93.0569 38.8787L90.911 32.6102H81.209ZM89.3716 27.3488C88.5464 24.5715 86.8463 19.4833 86.0499 16.4956H86.0086C85.3316 19.3141 83.8173 23.9236 82.7071 27.3488H89.3716Z" fill="#FA0F00"/>
<path id="Vector_3" d="M99.8656 28.9045C99.8656 22.8878 104.368 17.8409 112.068 17.8409C112.403 17.8409 112.823 17.8822 113.455 17.9235V9.63712C113.45 9.59752 113.455 9.55741 113.468 9.51974C113.481 9.4821 113.502 9.44788 113.53 9.41968C113.559 9.39149 113.593 9.37006 113.63 9.35697C113.668 9.3439 113.708 9.3395 113.748 9.34414H119.051C119.261 9.34414 119.302 9.42666 119.302 9.59586V34.4589C119.291 35.4852 119.348 36.5107 119.472 37.5292C119.472 37.7397 119.43 37.8264 119.179 37.909C116.557 39.0232 113.737 39.5959 110.888 39.5925C104.661 39.5925 99.8656 36.0602 99.8656 28.9045ZM113.455 22.9332C112.953 22.7692 112.426 22.6979 111.899 22.7228C108.659 22.7228 105.882 24.6994 105.882 28.6115C105.882 32.7753 108.28 34.5869 111.478 34.5869C112.146 34.6149 112.815 34.53 113.455 34.335V22.9332Z" fill="#FA0F00"/>
<path id="Vector_4" d="M143.398 28.6115C143.398 35.214 139.106 39.5925 133.048 39.5925C125.851 39.5925 122.657 34.1661 122.657 28.7394C122.657 22.764 126.652 17.8409 133.131 17.8409C139.907 17.8409 143.398 22.9332 143.398 28.6115ZM128.587 28.6528C128.587 32.3668 130.312 34.7107 133.127 34.7107C135.57 34.7107 137.418 32.6103 137.418 28.7394C137.418 25.4381 136.073 22.7228 132.879 22.7228C130.44 22.7228 128.587 24.9099 128.587 28.6528Z" fill="#FA0F00"/>
<path id="Vector_5" d="M152.241 9.34415C152.576 9.34415 152.654 9.38541 152.654 9.67839V18.3031C153.806 17.9947 154.994 17.8393 156.186 17.8409C162.376 17.8409 166.284 22.2152 166.284 27.8522C166.284 35.7218 160.057 39.5925 153.665 39.5925C151.427 39.6081 149.201 39.2811 147.063 38.6228C146.988 38.5819 146.926 38.5223 146.882 38.4498C146.838 38.3774 146.813 38.2948 146.811 38.2102V9.63713C146.811 9.42667 146.893 9.34415 147.104 9.34415H152.241ZM155.13 22.8053C154.293 22.7948 153.458 22.9089 152.654 23.1437V34.5662C153.165 34.6823 153.686 34.7378 154.21 34.7314C157.408 34.7314 160.309 32.7959 160.309 28.4217C160.317 24.5715 158.089 22.8053 155.143 22.8053H155.13Z" fill="#FA0F00"/>
<path id="Vector_6" d="M174.517 30.2539C174.728 32.6515 176.411 34.6281 180.534 34.6281C182.307 34.6623 184.068 34.3323 185.709 33.6584C185.837 33.5759 185.96 33.6171 185.96 33.8689V37.8677C185.96 38.1604 185.878 38.2803 185.667 38.371C183.984 39.1718 182.135 39.6091 179.23 39.6091C171.319 39.6091 168.546 34.1824 168.546 28.9664C168.546 23.1602 172.12 17.8574 178.726 17.8574C185.077 17.8574 187.603 22.7805 187.603 26.9361C187.632 27.8804 187.562 28.8252 187.392 29.7546C187.386 29.8424 187.349 29.9252 187.287 29.9874C187.225 30.0497 187.142 30.0872 187.054 30.093C185.614 30.2291 184.167 30.2855 182.721 30.2622L174.517 30.2539ZM179.989 26.1726C180.69 26.1983 181.393 26.1693 182.09 26.086V25.793C182.077 25.3386 181.975 24.8913 181.788 24.477C181.601 24.0627 181.333 23.6899 181 23.3802C180.668 23.0706 180.277 22.8303 179.85 22.6735C179.424 22.5167 178.97 22.4465 178.516 22.4669C175.867 22.4669 174.728 24.4477 174.476 26.1809L179.989 26.1726Z" fill="#FA0F00"/>
<path id="Vector_7" d="M35.0732 0.112793H55.43V48.8528L35.0732 0.112793Z" fill="#FA0F00"/>
<path id="Vector_8" d="M20.7288 0.112793H0.355469V48.8528L20.7288 0.112793Z" fill="#FA0F00"/>
<path id="Vector_9" d="M27.9009 18.0762L40.8709 48.8528H32.3701L28.491 39.052H18.9997L27.9009 18.0762Z" fill="#FA0F00"/>
</g>
</g>
</g>
</svg>
