<svg width="186" height="57" viewBox="0 0 186 57" fill="none" xmlns="http://www.w3.org/2000/svg">
<g id="Clip path group">
<mask id="mask0_755_116" style="mask-type:luminance" maskUnits="userSpaceOnUse" x="0" y="0" width="186" height="57">
<g id="clip0">
<path id="Vector" d="M185.77 0.953064H0.505859V56.7831H185.77V0.953064Z" fill="white"/>
</g>
</mask>
<g mask="url(#mask0_755_116)">
<g id="Group">
<path id="Vector_2" fill-rule="evenodd" clip-rule="evenodd" d="M115.44 44.6137C104.674 52.5493 89.0693 56.7831 75.634 56.7831C56.7953 56.7831 39.8358 49.8156 27.0055 38.2268C25.9974 37.3156 26.9006 36.0736 28.1103 36.7833C41.9569 44.8397 59.0777 49.6864 76.7631 49.6864C88.6901 49.6864 101.811 47.2187 113.875 42.0978C115.698 41.3236 117.222 43.2912 115.44 44.6137Z" fill="#FF9900"/>
<path id="Vector_3" fill-rule="evenodd" clip-rule="evenodd" d="M119.916 39.4929C118.545 37.7349 110.819 38.6623 107.351 39.0736C106.295 39.2026 106.133 38.2833 107.085 37.622C113.238 33.2914 123.335 34.5414 124.512 35.993C125.69 37.4527 124.206 47.5735 118.424 52.4039C117.537 53.146 116.69 52.7509 117.085 51.7669C118.384 48.5253 121.295 41.2592 119.916 39.4929Z" fill="#FF9900"/>
<path id="Vector_4" fill-rule="evenodd" clip-rule="evenodd" d="M107.593 7.04981V2.84017C107.593 2.20308 108.077 1.77567 108.658 1.77567H127.504C128.109 1.77567 128.593 2.21114 128.593 2.84017V6.44498C128.585 7.04981 128.077 7.84011 127.174 9.09008L117.408 23.0335C121.037 22.9448 124.867 23.4851 128.157 25.3399C128.899 25.7593 129.101 26.3721 129.158 26.977V31.4688C129.158 32.0817 128.48 32.7995 127.77 32.4285C121.972 29.3882 114.27 29.0576 107.859 32.4608C107.206 32.8156 106.52 32.1059 106.52 31.493V27.227C106.52 26.5415 106.529 25.3722 107.214 24.3318L118.529 8.10623H108.682C108.077 8.10623 107.593 7.67882 107.593 7.04981Z" fill="black"/>
<path id="Vector_5" fill-rule="evenodd" clip-rule="evenodd" d="M38.8441 33.3156H33.1103C32.5619 33.2753 32.1264 32.864 32.0861 32.3398V2.91275C32.0861 2.32405 32.578 1.85631 33.1909 1.85631H38.5376C39.0941 1.88049 39.5376 2.30792 39.5779 2.84017V6.68691H39.6826C41.078 2.9692 43.6989 1.23535 47.2309 1.23535C50.8199 1.23535 53.0617 2.9692 54.6745 6.68691C56.0618 2.9692 59.215 1.23535 62.5939 1.23535C64.9969 1.23535 67.6259 2.22727 69.2307 4.45305C71.0451 6.92884 70.6745 10.5256 70.6745 13.6788L70.6663 32.2511C70.6663 32.8398 70.1743 33.3156 69.5614 33.3156H63.8357C63.263 33.2753 62.8036 32.8156 62.8036 32.2511V16.6545C62.8036 15.4126 62.9164 12.3159 62.6423 11.1385C62.2147 9.16266 60.9325 8.60622 59.2712 8.60622C57.8844 8.60622 56.4324 9.53362 55.8439 11.0175C55.2553 12.5013 55.3115 14.9852 55.3115 16.6545V32.2511C55.3115 32.8398 54.8195 33.3156 54.207 33.3156H48.4809C47.9005 33.2753 47.4488 32.8156 47.4488 32.2511L47.4407 16.6545C47.4407 13.3723 47.9811 8.54171 43.9086 8.54171C39.7877 8.54171 39.949 13.2513 39.949 16.6545V32.2511C39.949 32.8398 39.457 33.3156 38.8441 33.3156Z" fill="black"/>
<path id="Vector_6" fill-rule="evenodd" clip-rule="evenodd" d="M144.819 1.23535C153.327 1.23535 157.931 8.54171 157.931 17.8319C157.931 26.8076 152.843 33.9285 144.819 33.9285C136.464 33.9285 131.915 26.6221 131.915 17.5174C131.915 8.35623 136.52 1.23535 144.819 1.23535ZM144.867 7.24335C140.641 7.24335 140.375 13.0013 140.375 16.59C140.375 20.1867 140.319 27.864 144.819 27.864C149.262 27.864 149.472 21.6706 149.472 17.8965C149.472 15.4126 149.367 12.4449 148.617 10.0901C147.972 8.04172 146.689 7.24335 144.867 7.24335Z" fill="black"/>
<path id="Vector_7" fill-rule="evenodd" clip-rule="evenodd" d="M168.964 33.3156H163.254C162.681 33.2753 162.222 32.8156 162.222 32.2511L162.214 2.81598C162.262 2.27566 162.738 1.85631 163.319 1.85631H168.633C169.133 1.88049 169.544 2.21921 169.657 2.67889V7.17884H169.762C171.367 3.15468 173.616 1.23535 177.576 1.23535C180.149 1.23535 182.657 2.16276 184.27 4.70305C185.77 7.05787 185.77 11.0175 185.77 13.8642V32.3882C185.705 32.9043 185.229 33.3156 184.665 33.3156H178.915C178.391 33.2753 177.955 32.8882 177.899 32.3882V16.4045C177.899 13.1868 178.27 8.4772 174.31 8.4772C172.915 8.4772 171.633 9.41266 170.996 10.832C170.189 12.6304 170.084 14.4207 170.084 16.4045V32.2511C170.076 32.8398 169.577 33.3156 168.964 33.3156Z" fill="black"/>
<path id="Vector_8" fill-rule="evenodd" clip-rule="evenodd" d="M92.5691 19.2593C92.5691 21.4931 92.6257 23.356 91.4967 25.3399C90.5856 26.9528 89.1337 27.9447 87.5289 27.9447C85.3275 27.9447 84.0372 26.2673 84.0372 23.7915C84.0372 18.9045 88.416 18.0174 92.5691 18.0174V19.2593ZM98.3514 33.235C97.9726 33.5737 97.424 33.5979 96.9968 33.3721C95.0935 31.7914 94.7465 31.0576 93.7063 29.5495C90.5612 32.7592 88.3272 33.7188 84.2547 33.7188C79.4243 33.7188 75.6744 30.7431 75.6744 24.7835C75.6744 20.1303 78.1906 16.9609 81.787 15.4126C84.8999 14.0416 89.2469 13.7997 92.5691 13.4207V12.6788C92.5691 11.3159 92.6742 9.70297 91.8678 8.52558C91.1742 7.46915 89.8354 7.03368 88.6498 7.03368C86.4647 7.03368 84.5211 8.15462 84.0454 10.4772C83.9484 10.9933 83.5693 11.5014 83.0451 11.5256L77.4888 10.9288C77.0213 10.824 76.4971 10.4449 76.6339 9.72717C77.9083 2.98533 84.005 0.953094 89.4562 0.953094C92.2466 0.953094 95.8918 1.69502 98.0936 3.8079C100.884 6.41269 100.618 9.88845 100.618 13.6707V22.6061C100.618 25.2915 101.73 26.4689 102.779 27.9205C103.142 28.4366 103.222 29.0576 102.755 29.4447C101.585 30.4205 99.5045 32.235 98.3596 33.2511L98.3514 33.235Z" fill="black"/>
<path id="Vector_9" fill-rule="evenodd" clip-rule="evenodd" d="M17.4008 19.2593C17.4008 21.4931 17.4572 23.356 16.3282 25.3399C15.417 26.9527 13.9735 27.9447 12.3605 27.9447C10.1589 27.9447 8.87671 26.2673 8.87671 23.7915C8.87671 18.9045 13.2557 18.0174 17.4008 18.0174V19.2593ZM23.183 33.2349C22.804 33.5736 22.2556 33.5978 21.8282 33.372C19.925 31.7914 19.5863 31.0575 18.5379 29.5495C15.3928 32.7591 13.167 33.7188 9.08639 33.7188C4.26387 33.7188 0.505859 30.743 0.505859 24.7834C0.505859 20.1302 3.03002 16.961 6.6187 15.4126C9.73153 14.0416 14.0783 13.7997 17.4008 13.4207V12.6787C17.4008 11.3158 17.5057 9.70294 16.7073 8.52554C16.0057 7.46912 14.667 7.03364 13.4896 7.03364C11.3041 7.03364 9.35251 8.15458 8.87671 10.4772C8.77994 10.9933 8.40092 11.5013 7.8848 11.5255L2.32035 10.9288C1.85261 10.8239 1.33649 10.4449 1.46552 9.72717C2.74777 2.9853 8.83639 0.953064 14.288 0.953064C17.0782 0.953064 20.7233 1.69499 22.9249 3.80787C25.7152 6.41269 25.4491 9.88846 25.4491 13.6707V22.606C25.4491 25.2915 26.562 26.4689 27.6104 27.9205C27.9813 28.4366 28.062 29.0576 27.5942 29.4447C26.4249 30.4204 24.3443 32.235 23.1991 33.2511L23.183 33.2349Z" fill="black"/>
</g>
</g>
</g>
</svg>
