<svg width="184" height="24" viewBox="0 0 184 24" fill="none" xmlns="http://www.w3.org/2000/svg">
<g id="Group 199">
<path id="Vector" d="M71.8443 2.20427V1.46284L71.5258 1.25137H58.8374L58.6259 1.46284V2.20427L58.8374 2.41575H64.2389L64.4504 2.62722V18.0673L64.6618 18.2788H65.6147L65.8262 18.0673V2.72914L66.0377 2.51766H71.5411L71.8596 2.20173L71.8443 2.20427ZM74.6979 5.89868C71.3092 5.89868 69.2964 8.32935 69.2964 11.8097V12.3422C69.2964 15.7309 70.9907 18.6864 74.9017 18.6864C78.2904 18.6864 79.5643 16.4647 79.7681 14.992L79.5592 14.7831H78.6038L78.3948 14.992C77.8649 16.4723 76.9094 17.4252 75.0062 17.4252C71.8214 17.4252 70.8786 14.4697 70.8786 12.9919L71.0927 12.783H79.8828L80.0968 12.569V11.8276C80.0968 8.33699 78.1936 5.91652 74.6953 5.91652L74.6979 5.89868ZM74.6979 7.16752C76.1782 7.16752 77.154 7.77646 77.7553 8.59687C78.3643 9.41729 78.6012 10.4466 78.6012 11.2976L78.3923 11.5116H70.978L70.764 11.2976C70.764 10.4517 71.0009 9.41984 71.6099 8.59687C72.2188 7.77646 73.1997 7.16752 74.6928 7.16752H74.6979ZM82.5198 12.2378C82.5198 8.84911 84.2116 7.06561 86.6474 7.06561C89.0806 7.06561 90.0361 8.54592 90.3418 10.0211L90.5533 10.2326H91.6106L91.8221 10.0211C91.6106 7.58792 89.6004 5.89359 86.6499 5.89359C83.4651 5.89359 81.0446 7.90385 81.0446 12.2378C81.0446 16.6711 83.4778 18.582 86.6499 18.582C89.6055 18.582 91.5164 16.8902 91.8221 14.4544L91.6106 14.2429H90.6577L90.4463 14.4544C90.2348 15.9347 89.1774 17.4099 86.7519 17.4099C84.3186 17.4099 82.5198 15.7182 82.5198 12.2378ZM103.667 18.1743V10.76C103.667 7.57518 101.975 5.89359 99.2339 5.89359C97.5421 5.89359 96.049 6.63502 95.3101 7.90385H95.0987V1.55966L94.7802 1.24373H93.8273L93.6158 1.4552V18.1692L93.8273 18.3807H94.7802L94.9917 18.1692V11.4938C94.9917 8.7421 96.2605 7.06051 98.9154 7.06051C100.926 7.06051 102.1 8.32935 102.1 10.7549V18.1692L102.312 18.3807H103.265L103.688 18.1692L103.667 18.1743ZM116.152 18.1743V10.76C116.152 7.57518 114.46 5.89359 111.718 5.89359C110.027 5.89359 108.534 6.63502 107.795 7.90385H107.583L107.372 6.42354L107.16 6.21207H106.419L106.207 6.42354V18.1692L106.419 18.3807H107.372L107.583 18.1692V11.4938C107.583 8.7421 108.852 7.06051 111.507 7.06051C113.517 7.06051 114.692 8.32935 114.692 10.7549V18.1692L114.903 18.3807H115.961L116.172 18.1692L116.152 18.1743ZM123.235 5.9955C120.05 5.9955 117.629 8.21979 117.629 12.3397C117.629 16.4672 120.065 18.6839 123.235 18.6839C126.404 18.6839 128.84 16.4647 128.84 12.3397C128.84 8.21215 126.404 5.9955 123.235 5.9955ZM123.235 7.15988C124.453 7.15988 125.482 7.66435 126.216 8.56375C126.942 9.46315 127.365 10.76 127.365 12.3346C127.365 13.9219 126.942 15.2137 126.216 16.1054C125.49 17.0048 124.458 17.5042 123.235 17.5042C122.017 17.5042 120.988 17.0048 120.254 16.1054C119.528 15.206 119.105 13.9092 119.105 12.3346C119.105 10.6938 119.528 9.40455 120.254 8.51279C120.98 7.62614 122.012 7.14969 123.235 7.14969V7.15988ZM132.127 18.1667V1.45265L131.808 1.24118H130.855L130.644 1.45265V18.1667L130.855 18.3781H131.808L132.127 18.1667ZM139.439 5.98786C136.254 5.98786 133.834 8.21215 133.834 12.332C133.834 16.4596 136.27 18.6762 139.439 18.6762C142.609 18.6762 145.045 16.457 145.045 12.332C145.045 8.2045 142.614 5.98786 139.439 5.98786ZM139.439 7.15223C140.657 7.15223 141.684 7.65671 142.42 8.55611C143.146 9.4555 143.574 10.7524 143.574 12.327C143.574 13.9143 143.146 15.206 142.42 16.0978C142.064 16.5446 141.61 16.9032 141.093 17.1458C140.576 17.3884 140.01 17.5084 139.439 17.4966C138.221 17.4966 137.192 16.9972 136.458 16.0978C135.727 15.1984 135.299 13.9015 135.299 12.327C135.299 10.6861 135.727 9.3969 136.453 8.50515C137.179 7.61849 138.211 7.14204 139.434 7.14204L139.439 7.15223ZM151.491 5.8834C148.102 5.8834 146.293 8.63509 146.293 12.2276C146.293 15.922 147.987 18.5718 151.491 18.5718C153.712 18.5718 154.879 17.6189 155.414 16.5615V16.666C155.414 19.8508 154.675 22.2713 151.72 22.2713C149.498 22.2713 148.764 21.3209 148.535 20.0521L148.321 19.8381H147.371L147.157 20.0521C147.368 22.0624 148.854 23.4408 151.819 23.4408C155.004 23.4408 157.017 21.4305 157.017 16.5615V6.39552L156.803 6.18659H156.062L155.853 6.39552L155.639 7.87838H155.43C154.9 6.92547 153.735 5.86811 151.506 5.86811L151.491 5.8834ZM151.491 7.04777C152.709 7.04777 153.687 7.46817 154.37 8.3268C155.045 9.18543 155.414 10.4823 155.414 12.225C155.414 13.9703 155.045 15.257 154.37 16.1233C153.695 16.9819 152.716 17.4074 151.491 17.4074C150.273 17.4074 149.294 16.9819 148.612 16.1233C147.936 15.2646 147.572 13.9678 147.572 12.225C147.572 10.5333 147.939 9.24403 148.612 8.35228C149.287 7.47836 150.265 7.03248 151.491 7.03248V7.04777ZM160.79 3.99033V2.51002L160.579 2.29855H159.626L159.307 2.51002V3.99033L159.519 4.2018H160.472L160.79 3.99033ZM160.79 18.1565V6.4108L160.579 6.19933H159.626L159.307 6.4108V18.1565L159.519 18.3679H160.472L160.79 18.1565ZM167.873 5.87575C164.485 5.87575 162.472 8.30642 162.472 11.7868V12.3193C162.472 15.708 164.166 18.6635 168.077 18.6635C171.466 18.6635 172.74 16.4418 172.944 14.9691L172.73 14.7602H171.779L171.565 14.9691C171.035 16.4494 170.085 17.4023 168.177 17.4023C164.992 17.4023 164.049 14.4468 164.049 12.969L164.263 12.7601H173.053L173.267 12.5461V11.8046C173.267 8.41598 171.254 5.89359 167.866 5.89359L167.873 5.87575ZM167.873 7.14459C169.354 7.14459 170.335 7.75353 170.956 8.57394C171.565 9.39436 171.802 10.4237 171.802 11.2747L171.588 11.4887H164.174L163.965 11.2747C163.965 10.4288 164.202 9.3969 164.811 8.57394C165.42 7.75353 166.396 7.14459 167.868 7.14459H167.873ZM183.645 15.1959C183.645 12.9741 182.376 12.011 179.95 11.5014C177.517 10.9715 176.027 10.76 176.027 9.06823C176.027 7.79939 176.979 7.05796 178.778 7.05796C181 7.05796 181.734 8.01086 181.734 9.2797L181.945 9.49118H182.898L183.11 9.2797C183.11 6.84649 181.099 5.89104 178.676 5.89104C175.925 5.89104 174.549 7.37135 174.549 9.07587C174.549 11.0861 176.029 12.0314 178.473 12.4645C180.906 12.9945 182.167 13.206 182.167 15.2162C182.167 16.4851 181.428 17.438 178.982 17.438C176.76 17.438 175.797 16.1691 175.797 14.6863L175.586 14.4748H174.633L174.421 14.6863C174.421 16.908 176.113 18.61 179.084 18.61C182.141 18.717 183.645 17.2341 183.645 15.2213V15.1959Z" fill="#808080"/>
<path id="Vector_2" d="M58.5954 14.7729V18.2635H47.5886V0.988942H51.5887V14.7474H58.5954V14.7729ZM25.2183 0.020752L15.46 7.53696C14.4587 3.7916 11.205 1.0399 7.20488 1.0399H0.198242V18.3144H7.20488C11.205 18.3144 14.7211 15.5627 15.46 11.8174L25.2183 19.3336L34.9766 11.8174V18.3144H45.9834V14.7984H38.722V1.0399H34.7218V7.53696L25.4731 15.0532L23.473 13.3002L27.9827 9.78418L32.7472 6.03882L29.9956 3.78905L20.7468 11.0505L18.7467 9.29754L27.9955 2.2909L25.2438 0.0411349H25.2387L25.2183 0.020752ZM3.94361 4.53048H6.95009C7.57432 4.53048 8.18835 4.67061 8.75143 4.92795C9.31451 5.18528 9.83173 5.56236 10.27 6.03372C10.7082 6.50253 11.0649 7.06306 11.3146 7.69493C11.5643 8.32935 11.7019 9.03511 11.7019 9.78418C11.7019 10.4721 11.5796 11.1422 11.3477 11.7639C11.1184 12.3856 10.7795 12.9563 10.3566 13.4404C9.93364 13.9245 9.42917 14.3219 8.85335 14.5997C8.27753 14.8774 7.63547 15.0328 6.94754 15.0328H3.94106V4.53557L3.94361 4.53048Z" fill="#007DB8"/>
</g>
</svg>
