<svg width="30" height="30" viewBox="0 0 30 30" fill="none" xmlns="http://www.w3.org/2000/svg">
<path id="Vector" opacity="0.5" d="M0.375 15.0203C0.375 12.1524 1.22541 9.34901 2.81869 6.9645C4.41197 4.57999 6.67656 2.72149 9.32609 1.62402C11.9756 0.526546 14.8911 0.239398 17.7038 0.798884C20.5165 1.35837 23.1002 2.73936 25.128 4.76722C27.1559 6.79508 28.5369 9.37873 29.0964 12.1915C29.6559 15.0042 29.3687 17.9196 28.2712 20.5692C27.1738 23.2187 25.3153 25.4833 22.9308 27.0766C20.5463 28.6699 17.7428 29.5203 14.875 29.5203C11.0306 29.5162 7.34483 27.9872 4.62643 25.2688C1.90804 22.5504 0.37906 18.8647 0.375 15.0203ZM14.0859 21.3863C14.1895 21.49 14.3125 21.5723 14.4479 21.6284C14.5833 21.6846 14.7284 21.7134 14.875 21.7134C15.0216 21.7134 15.1667 21.6846 15.3021 21.6284C15.4375 21.5723 15.5605 21.49 15.6641 21.3863L20.1257 16.9248C20.335 16.7155 20.4525 16.4316 20.4525 16.1357C20.4525 15.8397 20.335 15.5558 20.1257 15.3465C19.9164 15.1372 19.6325 15.0196 19.3365 15.0196C19.0406 15.0196 18.7567 15.1372 18.5474 15.3465L15.9904 17.9049L15.9904 9.44335C15.9904 9.14753 15.8729 8.86382 15.6637 8.65465C15.4545 8.44547 15.1708 8.32796 14.875 8.32796C14.5792 8.32796 14.2955 8.44547 14.0863 8.65465C13.8771 8.86382 13.7596 9.14753 13.7596 9.44335L13.7596 17.9049L11.2026 15.3465C10.9933 15.1372 10.7094 15.0196 10.4135 15.0196C10.1175 15.0196 9.83362 15.1372 9.62432 15.3465C9.41503 15.5558 9.29746 15.8397 9.29746 16.1357C9.29746 16.4316 9.41503 16.7155 9.62432 16.9248L14.0859 21.3863Z" fill="#3E2678"/>
</svg>
