<svg width="173" height="59" viewBox="0 0 173 59" fill="none" xmlns="http://www.w3.org/2000/svg">
<g id="Google (logo &#226;&#128;&#148; Colour)">
<path id="Vector" d="M73.3787 29.8772C73.3787 37.9334 67.0761 43.8697 59.3418 43.8697C51.6072 43.8697 45.3046 37.9334 45.3046 29.8772C45.3046 21.7642 51.6072 15.8845 59.3418 15.8845C67.0761 15.8845 73.3787 21.7642 73.3787 29.8772ZM67.2337 29.8772C67.2337 24.8429 63.5812 21.3983 59.3418 21.3983C55.1021 21.3983 51.4496 24.8429 51.4496 29.8772C51.4496 34.8611 55.1021 38.3561 59.3418 38.3561C63.5812 38.3561 67.2337 34.8548 67.2337 29.8772Z" fill="#EA4335"/>
<path id="Vector_2" d="M103.661 29.8772C103.661 37.9334 97.358 43.8697 89.6234 43.8697C81.8892 43.8697 75.5866 37.9334 75.5866 29.8772C75.5866 21.7705 81.8892 15.8845 89.6234 15.8845C97.358 15.8845 103.661 21.7642 103.661 29.8772ZM97.5156 29.8772C97.5156 24.8429 93.8631 21.3983 89.6234 21.3983C85.3841 21.3983 81.7316 24.8429 81.7316 29.8772C81.7316 34.8611 85.3841 38.3561 89.6234 38.3561C93.8631 38.3561 97.5156 34.8548 97.5156 29.8772Z" fill="#FBBC05"/>
<path id="Vector_3" d="M132.68 16.7299V41.8512C132.68 52.1848 126.586 56.4051 119.381 56.4051C112.6 56.4051 108.518 51.8692 106.979 48.1598L112.328 45.933C113.281 48.2102 115.615 50.8978 119.375 50.8978C123.987 50.8978 126.845 48.0526 126.845 42.6964V40.684H126.63C125.255 42.3808 122.605 43.8637 119.262 43.8637C112.265 43.8637 105.856 37.7694 105.856 29.9277C105.856 22.0292 112.265 15.8845 119.262 15.8845C122.599 15.8845 125.249 17.367 126.63 19.0136H126.845V16.7362H132.68V16.7299ZM127.28 29.9277C127.28 25.0006 123.993 21.3983 119.811 21.3983C115.571 21.3983 112.019 25.0006 112.019 29.9277C112.019 34.8043 115.571 38.3561 119.811 38.3561C123.993 38.3561 127.28 34.8043 127.28 29.9277Z" fill="#4285F4"/>
<path id="Vector_4" d="M142.301 2.00546V43.012H136.308V2.00546H142.301Z" fill="#34A853"/>
<path id="Vector_5" d="M165.656 34.4826L170.425 37.6621C168.886 39.9396 165.176 43.8637 158.767 43.8637C150.818 43.8637 144.881 37.7189 144.881 29.8709C144.881 21.5497 150.868 15.8782 158.079 15.8782C165.34 15.8782 168.892 21.657 170.053 24.7798L170.69 26.3696L151.985 34.1167C153.417 36.924 155.644 38.3561 158.767 38.3561C161.896 38.3561 164.066 36.8168 165.656 34.4826ZM150.975 29.4482L163.479 24.2562C162.792 22.5087 160.722 21.2911 158.287 21.2911C155.164 21.2911 150.818 24.048 150.975 29.4482Z" fill="#EA4335"/>
<path id="Vector_6" d="M22.6188 26.2371V20.3007H42.6239C42.8194 21.3353 42.9202 22.5592 42.9202 23.884C42.9202 28.338 41.7025 33.8455 37.7787 37.7695C33.9619 41.744 29.0853 43.8637 22.6252 43.8637C10.6512 43.8637 0.582581 34.1104 0.582581 22.1365C0.582581 10.1626 10.6512 0.409363 22.6252 0.409363C29.2493 0.409363 33.9682 3.00855 37.5137 6.39633L33.3247 10.5853C30.7823 8.20061 27.3377 6.34583 22.6188 6.34583C13.875 6.34583 7.0364 13.3927 7.0364 22.1365C7.0364 30.8803 13.875 37.9272 22.6188 37.9272C28.2904 37.9272 31.5204 35.6497 33.5897 33.5805C35.2678 31.9024 36.3718 29.5051 36.8071 26.2309L22.6188 26.2371Z" fill="#4285F4"/>
</g>
</svg>
