<svg width="143" height="51" viewBox="0 0 143 51" fill="none" xmlns="http://www.w3.org/2000/svg">
<g id="nunify">
<g id="Group 711">
<path id="Combined Shape" fill-rule="evenodd" clip-rule="evenodd" d="M137.817 9.13726C140.238 9.13726 142.126 7.16042 142.126 4.81609C142.126 2.45909 140.25 0.520264 137.843 0.520264C135.422 0.520264 133.547 2.4971 133.547 4.84143C133.547 7.18577 135.41 9.13726 137.817 9.13726ZM137.817 8.08541C135.98 8.08541 134.586 6.62813 134.586 4.84137C134.586 3.05461 135.993 1.57198 137.843 1.57198C139.68 1.57198 141.1 3.02926 141.1 4.81602C141.1 6.60278 139.668 8.08541 137.817 8.08541ZM137.234 5.57645V6.69159H136.207V2.67455H137.956C139.033 2.67455 139.641 3.18143 139.641 4.08115C139.641 4.68941 139.388 5.1456 138.919 5.3737L139.768 6.69159H138.59L137.994 5.57645H137.234ZM137.957 4.76546H137.234V3.48558H137.957C138.4 3.48558 138.653 3.70101 138.653 4.11918C138.653 4.52469 138.4 4.76546 137.957 4.76546ZM80.1069 9.23981C82.4366 9.23981 84.3252 7.35122 84.3252 5.02154C84.3252 2.69185 82.4366 0.803263 80.1069 0.803263C77.7773 0.803263 75.8887 2.69185 75.8887 5.02154C75.8887 7.35122 77.7773 9.23981 80.1069 9.23981ZM114.855 29.889C114.589 30.5799 114.228 31.5181 114.347 31.8369L107.065 12.2972H96.9047V11.4064C96.9047 7.90654 98.7322 5.97556 102.077 5.97556C103.465 6.00425 104.839 6.25852 106.146 6.72842L106.801 1.86648C104.646 1.20853 102.41 0.854548 100.157 0.814789C93.7668 0.814789 90.3876 4.41814 90.3876 11.2513L90.3244 12.2972H76.7443V39.1126H83.6407V18.32H90.2037V39.1126H96.8932V18.32H103.56L111.45 39.2333C111.309 39.5487 111.169 39.8751 111.028 40.2061C109.931 42.7754 108.72 45.6124 105.456 45.6124C104.469 45.5855 103.495 45.3771 102.583 44.9975L101.893 49.4629C103.626 50.1136 105.456 50.471 107.307 50.5203C113.059 50.5203 115.554 44.8595 117.381 40.3137C118.834 36.6473 120.051 32.8964 121.268 29.1443C122.058 26.7092 122.848 24.2735 123.703 21.8602C124.375 19.9292 125.404 17.4752 127.823 17.4752C128.401 17.4872 128.973 17.598 129.513 17.8028L130.208 13.3374L130.104 13.3021C127.628 12.4613 125.57 11.7625 123.088 12.9811C121.32 13.9543 119.872 15.417 118.916 17.1936C117.38 19.7837 116.594 23.084 115.857 26.1779C115.606 27.2305 115.361 28.2591 115.094 29.2278C115.056 29.3688 114.963 29.6085 114.855 29.889ZM3.90795 39.0436L3.86197 21.0441C3.86197 16.7741 1.18964 17.7511 1.18964 17.7511L0.5 13.2799C3.01142 12.4236 5.09757 11.7225 7.62624 12.9294C7.62624 12.9294 9.23539 13.7684 9.42504 14.1592L10.2698 13.7569C14.0341 11.711 18.5975 11.7979 22.2811 13.9857C25.9647 16.1734 28.2245 20.139 28.2291 24.4233V39.0436H21.7006V24.8256C21.7006 21.7214 19.1842 19.2051 16.08 19.2051C12.9759 19.2051 10.4595 21.7214 10.4595 24.8256V39.0436H3.90795Z" fill="#3E2678"/>
<path id="NETWORKS-UNIFIED" fill-rule="evenodd" clip-rule="evenodd" d="M50.33 45.3608L49.9377 46.1934C49.3293 45.8251 48.7209 45.673 48.2966 45.673C47.7442 45.673 47.384 45.8812 47.384 46.2574C47.384 46.7937 47.964 46.9693 48.6155 47.1666C49.4521 47.42 50.4066 47.709 50.4021 48.8432C50.4021 49.8439 49.5215 50.4603 48.2886 50.4603C47.408 50.4603 46.5754 50.1001 45.999 49.5717L46.4073 48.7552C46.9837 49.2835 47.7042 49.5717 48.3046 49.5717C48.9611 49.5717 49.3533 49.3236 49.3533 48.8913C49.3533 48.3395 48.7626 48.1675 48.1032 47.9754C47.2701 47.7328 46.3273 47.4582 46.3273 46.3455C46.3273 45.3848 47.1518 44.7844 48.3687 44.7844C49.0972 44.7844 49.8097 45.0166 50.33 45.3608ZM31.012 44.8005C29.3389 44.8005 28.042 46.0173 28.042 47.6264C28.042 49.2275 29.3389 50.4684 31.012 50.4684C32.6852 50.4684 33.9821 49.2275 33.9821 47.6264C33.9821 46.0253 32.6852 44.8005 31.012 44.8005ZM4.01855 50.4283V44.8245H4.9472L7.94927 48.8512V44.8245H8.87791V50.4283H7.94927L4.96321 46.4095V50.4283H4.01855ZM10.3584 50.4283V44.8245H14.3612V45.673H11.3031V47.1941H14.0409V48.0347H11.3031V49.5797H14.4572V50.4283H10.3584ZM14.9463 44.8245V45.673H16.7155V50.4283H17.6602V45.673H19.4374V44.8245H14.9463ZM21.3905 50.4283L19.5332 44.8245H20.5499L21.9108 49.3796L23.2638 44.8245H24.1924L25.5534 49.3796L26.9063 44.8245H27.883L26.0097 50.4283H25.041L23.7121 46.0573L22.3672 50.4283H21.3905ZM33.0147 47.6264C33.0147 46.5137 32.1181 45.6491 31.0213 45.6491C29.9165 45.6491 29.0039 46.5137 29.0039 47.6264C29.0039 48.7392 29.9245 49.6198 31.0213 49.6198C32.1181 49.6198 33.0147 48.7392 33.0147 47.6264ZM39.6194 50.4283L38.3625 48.555C39.107 48.2668 39.5233 47.6344 39.5233 46.7378C39.5233 45.5209 38.6987 44.8245 37.2658 44.8245H34.9922V50.4283H35.9368V48.7392H37.2658C37.3538 48.7392 37.4419 48.7392 37.5219 48.7312L38.5466 50.4283H39.6194ZM35.9355 45.673V47.8906H37.2645C38.1291 47.8906 38.6254 47.5223 38.6254 46.7618C38.6254 46.0253 38.1291 45.673 37.2645 45.673H35.9355ZM45.6558 50.4283L43.3422 47.2181L45.5117 44.8245H44.3989L41.7251 47.7225V44.8245H40.7804V50.4283H41.7251V49.0033L42.6777 47.9546L44.519 50.4283H45.6558ZM54.7415 48.1067V44.8245H53.7969V48.1067C53.7969 49.5717 54.7255 50.4684 56.2386 50.4684C57.7516 50.4684 58.6722 49.5717 58.6722 48.1067V44.8245H57.7276V48.1067C57.7276 49.0594 57.1592 49.6198 56.2466 49.6198C55.3259 49.6198 54.7415 49.0514 54.7415 48.1067ZM60.0264 50.4283V44.8245H60.955L63.9571 48.8512V44.8245H64.8857V50.4283H63.9571L60.971 46.4096V50.4283H60.0264ZM66.3652 44.8245V50.4283H67.3099V44.8245H66.3652ZM68.7842 50.4283V44.8245H72.5468L72.5388 45.673H69.7288V47.2902H72.2746V48.1307H69.7288V50.4283H68.7842ZM73.3867 44.8245V50.4283H74.3314V44.8245H73.3867ZM75.8048 50.4283V44.8245H79.8076V45.673H76.7495V47.1941H79.4874V48.0347H76.7495V49.5797H79.9037V50.4283H75.8048ZM83.3523 44.8245H81.0547V50.4283H83.3283C85.0254 50.4283 86.2503 49.2435 86.2503 47.6264C86.2503 46.0013 85.0334 44.8245 83.3523 44.8245ZM82.0011 49.5797H83.3781C84.4668 49.5797 85.2994 48.7712 85.2994 47.6344C85.2994 46.4896 84.4428 45.673 83.3381 45.673H82.0011V49.5797Z" fill="#3E2678"/>
<path id="icon" d="M37.8136 12.297V26.5093C37.8136 29.6134 40.33 32.1298 43.4341 32.1298C46.4838 32.1298 48.9662 29.7009 49.0523 26.6721L49.0547 26.5093V22.745C49.0547 19.6953 46.6258 17.2129 43.597 17.1268L43.4341 17.1245V12.297H55.9395L55.9392 13.5937C57.5291 12.7934 59.2888 12.3457 61.0968 12.3007L61.4164 12.297L61.6254 12.2987C68.1626 12.4059 73.4464 17.6772 73.5691 24.2141L73.5712 24.4231V39.0434H67.0369V24.8254C67.0369 21.7213 64.5205 19.2049 61.4164 19.2049C58.3667 19.2049 55.8843 21.6337 55.7982 24.6626L55.7959 24.8254V28.5897C55.7959 31.6393 58.2247 34.1217 61.2536 34.2079L61.4164 34.2102V39.0549H49.0259L49.0261 37.6805C47.4404 38.5047 45.6502 38.9896 43.7516 39.0392L43.4341 39.0434L43.2248 39.0416C36.6781 38.931 31.3916 33.6446 31.2811 27.0979L31.2793 26.8886V12.297H37.8136Z" fill="#44E6F6"/>
</g>
</g>
</svg>
