<svg width="18" height="18" viewBox="0 0 18 18" fill="none" xmlns="http://www.w3.org/2000/svg">
<g id="Accordion +">
<path id="Vector 1 (Stroke)" fill-rule="evenodd" clip-rule="evenodd" d="M0.122147 8.78561C0.120697 8.22463 0.574281 7.7687 1.13526 7.76725L16.4576 7.72763C17.0185 7.72618 17.4745 8.17976 17.4759 8.74074C17.4774 9.30171 17.0238 9.75765 16.4628 9.7591L1.14051 9.79872C0.579534 9.80017 0.123598 9.34658 0.122147 8.78561Z" fill="#3E2678"/>
<path id="Vector 2 (Stroke)" fill-rule="evenodd" clip-rule="evenodd" d="M8.77642 0.0863813C8.21544 0.0878316 7.76186 0.543768 7.76331 1.10474L7.80292 16.4271C7.80438 16.988 8.26031 17.4416 8.82129 17.4402C9.38226 17.4387 9.83585 16.9828 9.8344 16.4218L9.79478 1.09949C9.79333 0.538515 9.33739 0.0849308 8.77642 0.0863813Z" fill="#3E2678"/>
</g>
</svg>
