<svg width="187" height="31" viewBox="0 0 187 31" fill="none" xmlns="http://www.w3.org/2000/svg">
<g id="Layer 2" opacity="0.8">
<g id="Group">
<path id="Vector" d="M12.9937 0.731506L0.647461 24.9639H6.38224L18.7321 0.731506H12.9937Z" fill="#F2617A"/>
<path id="Vector_2" d="M84.0459 10.4332L83.0569 12.3714H82.9989C82.5896 11.5961 81.9592 10.9657 81.1839 10.5564C80.4014 10.1977 79.5501 10.0202 78.6879 10.0419C77.7605 10.0238 76.8403 10.2231 76.0071 10.6324C75.2463 11.0092 74.5761 11.5526 74.0508 12.2192C73.511 12.9075 73.1053 13.6864 72.8589 14.5233C72.5836 15.4036 72.4459 16.3238 72.4495 17.2439C72.4423 18.1931 72.5582 19.1386 72.7901 20.0588C73.0002 20.9029 73.3806 21.6963 73.9023 22.3918C74.4131 23.062 75.0796 23.6018 75.8404 23.9677C76.7207 24.3735 77.6844 24.5691 78.6516 24.5437C79.5211 24.5473 80.3761 24.359 81.1658 23.9931C81.9483 23.6417 82.5968 23.0439 83.0098 22.2904H83.0641V24.2032C83.0641 26.471 82.0027 27.768 79.887 27.768C77.7713 27.768 76.6483 26.8623 76.0469 26.116L74.6051 28.9707C74.6051 28.9707 76.2389 30.4415 79.3291 30.4415C84.4516 30.4415 86.8571 27.9491 86.8571 24.0293V10.4187L84.0459 10.4332ZM82.8468 19.0191C82.7127 19.4792 82.499 19.9139 82.2128 20.2979C81.9302 20.6747 81.5643 20.9862 81.1477 21.2036C80.6876 21.4354 80.1768 21.5513 79.6588 21.5405C79.1154 21.5622 78.5792 21.4246 78.1119 21.1456C77.7061 20.892 77.362 20.5442 77.112 20.1349C76.8512 19.7074 76.67 19.2364 76.5794 18.7474C76.4744 18.2329 76.42 17.7113 76.42 17.186C76.42 16.6607 76.4816 16.1354 76.6048 15.6246C76.7171 15.15 76.9164 14.7044 77.1953 14.3059C77.4598 13.9328 77.8039 13.6212 78.2061 13.4002C78.6517 13.1647 79.1516 13.0488 79.6551 13.0633C80.2203 13.0416 80.7818 13.1647 81.2854 13.4256C81.702 13.661 82.057 13.9943 82.3142 14.3965C82.5859 14.8312 82.7779 15.313 82.8758 15.8166C82.9917 16.3745 83.046 16.9432 83.0424 17.512C83.0533 18.0228 82.9881 18.53 82.8468 19.0191Z" fill="#003D4F"/>
<path id="Vector_3" d="M30.8353 4.89764V12.4547H30.9222C31.3715 11.6649 32.0453 11.0237 32.8604 10.6179C33.5741 10.252 34.3602 10.0528 35.1608 10.0419C36.0593 10.0166 36.9541 10.1723 37.7909 10.4948C38.4249 10.7484 38.9828 11.165 39.4067 11.7011C39.8161 12.259 40.0986 12.9039 40.2327 13.5849C40.3993 14.3928 40.479 15.2188 40.4718 16.0448V24.982H36.4868V16.7548C36.5483 15.8274 36.3563 14.9 35.9252 14.074C35.5521 13.4799 34.8855 13.1683 33.9327 13.1683C32.8459 13.1683 32.0598 13.4944 31.5707 14.1392C31.0817 14.7841 30.8389 15.8491 30.8389 17.3164V24.9676H26.8467V4.90126H30.8353V4.89764Z" fill="#003D4F"/>
<path id="Vector_4" d="M42.1531 14.5522C42.4792 13.6465 42.9972 12.8242 43.6674 12.1322C44.3376 11.4584 45.1419 10.9331 46.0258 10.5853C48.0292 9.85714 50.2209 9.85714 52.2243 10.5853C54.0429 11.27 55.4666 12.7191 56.1151 14.5522C56.4846 15.5702 56.6658 16.6461 56.6513 17.7293C56.6658 18.8017 56.4846 19.8704 56.1151 20.8775C55.7818 21.7759 55.2674 22.591 54.6008 23.2794C53.9234 23.9423 53.1155 24.4567 52.2243 24.7792C50.2173 25.4892 48.0292 25.4892 46.0222 24.7792C45.1346 24.4422 44.3304 23.917 43.6638 23.2468C42.9936 22.5621 42.4792 21.7469 42.1495 20.8449C41.78 19.8378 41.5988 18.7691 41.6133 17.6967C41.5988 16.6244 41.7836 15.5593 42.1531 14.5522ZM45.7795 19.4103C45.8809 19.9392 46.0765 20.4428 46.3555 20.9028C46.6199 21.3376 46.9931 21.6998 47.435 21.9571C47.9531 22.236 48.5364 22.3737 49.1232 22.3519C49.7137 22.3701 50.297 22.236 50.8187 21.9571C51.2679 21.7071 51.6483 21.3448 51.9164 20.9028C52.1953 20.4428 52.3909 19.9392 52.4924 19.4103C52.6047 18.8524 52.6626 18.2836 52.659 17.7148C52.659 17.1388 52.6047 16.5628 52.4924 16.0013C52.3909 15.4724 52.1989 14.9688 51.9164 14.5087C51.641 14.0668 51.2643 13.7009 50.8151 13.4364C50.297 13.1538 49.7101 13.0125 49.1196 13.0343C48.0002 12.9727 46.9387 13.5342 46.3519 14.4906C46.0693 14.9471 45.8737 15.4543 45.7758 15.9832C45.6599 16.5483 45.6056 17.1207 45.6019 17.6967C45.6019 18.2727 45.6599 18.8488 45.7795 19.4103Z" fill="#003D4F"/>
<path id="Vector_5" d="M67.5412 24.9639V22.9642H67.4579C67.0014 23.7539 66.3131 24.3879 65.4871 24.7792C64.7154 25.1451 63.8713 25.3334 63.0128 25.3371C62.1179 25.3661 61.2268 25.2248 60.3863 24.9205C59.7487 24.6741 59.1908 24.2611 58.7705 23.7213C58.3576 23.1634 58.0714 22.5222 57.9409 21.8375C57.7743 21.0296 57.6946 20.2037 57.7018 19.3777V10.4295H61.6941V18.6386C61.6325 19.5697 61.8281 20.4971 62.2556 21.3267C62.6288 21.9172 63.2917 22.2179 64.2517 22.2324C65.3386 22.2324 66.1247 21.91 66.6101 21.2615C67.0956 20.6167 67.3419 19.5516 67.3419 18.0844V10.4295H71.3306V24.9494L67.5412 24.9639Z" fill="#003D4F"/>
<path id="Vector_6" d="M92.3351 4.89764V12.4547H92.4185C92.8713 11.6649 93.5451 11.0237 94.3603 10.6179C95.0739 10.252 95.8601 10.0528 96.6607 10.0419C97.5591 10.0166 98.4539 10.1723 99.2908 10.4948C99.9284 10.7411 100.49 11.1541 100.921 11.683C101.33 12.2445 101.613 12.8858 101.751 13.5668C101.914 14.3747 101.993 15.2007 101.986 16.0267V24.9639H97.9975V16.7548C98.0591 15.8274 97.8634 14.9 97.436 14.074C97.0628 13.469 96.3962 13.1683 95.4398 13.1683C94.3494 13.1683 93.5669 13.4944 93.0814 14.1392C92.596 14.7841 92.3496 15.8491 92.3496 17.3164V24.9676H88.3574V4.90126L92.3351 4.89764Z" fill="#003D4F"/>
<path id="Vector_7" d="M132.435 14.5522C133.09 12.73 134.503 11.2845 136.311 10.5853C138.314 9.85714 140.506 9.85714 142.51 10.5853C144.325 11.2736 145.748 12.7227 146.404 14.5522C146.773 15.5702 146.955 16.6461 146.94 17.7293C146.955 18.8017 146.773 19.8704 146.404 20.8775C146.071 21.7759 145.553 22.5947 144.886 23.2794C144.212 23.9459 143.404 24.4567 142.517 24.7792C140.51 25.4892 138.322 25.4892 136.315 24.7792C135.427 24.4422 134.623 23.9206 133.956 23.2468C133.286 22.5621 132.768 21.7433 132.435 20.8449C132.069 19.8378 131.888 18.7691 131.902 17.6967C131.888 16.6244 132.069 15.5593 132.435 14.5522ZM136.061 19.4103C136.163 19.9392 136.358 20.4428 136.637 20.9028C136.905 21.3376 137.278 21.6998 137.72 21.9571C138.238 22.236 138.822 22.3737 139.408 22.3519C139.999 22.3701 140.582 22.236 141.104 21.9571C141.553 21.7035 141.93 21.3412 142.202 20.9028C142.481 20.4428 142.676 19.9392 142.778 19.4103C142.89 18.8524 142.948 18.2836 142.944 17.7148C142.944 17.1388 142.89 16.5628 142.778 16.0013C142.676 15.4724 142.484 14.9688 142.202 14.5087C141.926 14.0704 141.546 13.7009 141.1 13.4364C140.582 13.1538 139.995 13.0125 139.405 13.0343C138.814 13.0125 138.235 13.1538 137.717 13.4364C137.278 13.6972 136.909 14.0595 136.633 14.4906C136.351 14.9507 136.159 15.4543 136.057 15.9832C135.949 16.5483 135.891 17.1207 135.891 17.6967C135.891 18.2727 135.945 18.8451 136.057 19.4103H136.061Z" fill="#003D4F"/>
<path id="Vector_8" d="M163.413 4.89764V15.6644L168.438 10.4332H173.162L167.681 15.7731L173.785 24.9639H168.949L164.96 18.472L163.413 19.961V24.9494H159.421V4.89764H163.413Z" fill="#003D4F"/>
<path id="Vector_9" d="M176.734 21.3521C176.905 21.6528 177.136 21.91 177.419 22.1092C177.712 22.3157 178.042 22.4715 178.39 22.5621C178.763 22.6563 179.143 22.7034 179.527 22.7034C179.825 22.7034 180.122 22.6671 180.411 22.6019C180.708 22.544 180.991 22.4389 181.256 22.294C181.505 22.1563 181.723 21.9643 181.886 21.7325C182.067 21.4644 182.158 21.1456 182.139 20.8268C182.139 20.229 181.741 19.7798 180.948 19.4647C179.861 19.0843 178.749 18.78 177.618 18.559C177.039 18.4286 176.47 18.2728 175.916 18.1061C175.387 17.9504 174.887 17.7185 174.423 17.4214C173.999 17.1389 173.644 16.7621 173.383 16.3237C173.108 15.831 172.97 15.2732 172.988 14.708C172.956 13.9038 173.144 13.1068 173.539 12.4039C173.891 11.8134 174.39 11.3244 174.985 10.9838C175.619 10.6288 176.31 10.3861 177.028 10.2629C177.785 10.1216 178.557 10.0528 179.328 10.0528C180.096 10.0492 180.864 10.1253 181.618 10.2738C182.317 10.4078 182.991 10.665 183.599 11.0346C184.183 11.3932 184.675 11.875 185.049 12.451C185.458 13.1285 185.697 13.8965 185.737 14.6863H181.944C181.958 14.045 181.625 13.4473 181.074 13.1249C180.498 12.8423 179.861 12.701 179.22 12.7155C178.977 12.7155 178.73 12.73 178.488 12.7553C178.241 12.7807 177.999 12.8423 177.77 12.9401C177.557 13.0271 177.368 13.1683 177.22 13.3495C177.06 13.5524 176.984 13.8059 176.999 14.0632C176.988 14.3964 177.129 14.7189 177.39 14.9326C177.694 15.179 178.042 15.3673 178.415 15.4833C178.89 15.639 179.372 15.7658 179.861 15.8637C180.404 15.9796 180.958 16.1028 181.52 16.2295C182.096 16.3563 182.661 16.5157 183.215 16.7041C183.741 16.878 184.237 17.128 184.69 17.4468C185.117 17.7511 185.476 18.1424 185.733 18.5988C186.012 19.1205 186.146 19.7074 186.128 20.3015C186.204 21.9027 185.407 23.417 184.045 24.2611C183.397 24.6669 182.679 24.9495 181.926 25.0907C181.125 25.2501 180.31 25.3298 179.495 25.3262C178.665 25.3298 177.836 25.2429 177.021 25.0763C176.26 24.9241 175.528 24.6343 174.869 24.2213C173.481 23.3736 172.644 21.8556 172.662 20.229H176.455C176.452 20.6275 176.546 21.0116 176.734 21.3521Z" fill="#003D4F"/>
<path id="Vector_10" d="M110.416 21.9824C109.938 22.0404 109.453 21.9209 109.054 21.6455C108.779 21.247 108.659 20.7652 108.717 20.2834V13.0995H110.945L112.307 10.4259H108.724V6.07141H104.732V10.4259H102.736L101.374 13.0923H104.728V21.6673C104.703 22.2795 104.83 22.8881 105.094 23.4352C105.323 23.8699 105.667 24.2322 106.094 24.4785C106.547 24.7285 107.043 24.8951 107.554 24.9676C108.134 25.0545 108.724 25.098 109.311 25.0944C109.706 25.0944 110.105 25.0944 110.518 25.069C110.894 25.0545 111.271 25.0147 111.644 24.9567V21.8629C111.449 21.9027 111.253 21.9317 111.054 21.9498C110.855 21.9752 110.641 21.9824 110.416 21.9824Z" fill="#003D4F"/>
<path id="Vector_11" d="M24.3618 21.9824C23.8836 22.0404 23.3982 21.9209 22.9997 21.6455C22.7244 21.247 22.6048 20.7652 22.6628 20.2834V13.0995H24.7169L26.079 10.4259H22.6737V6.07141H18.685V10.4259H16.6853L15.3231 13.0923H18.6814V21.6673C18.6524 22.2795 18.7792 22.8845 19.0437 23.4352C19.2719 23.8699 19.6197 24.2322 20.0436 24.4785C20.5 24.7321 21 24.8987 21.518 24.9676C22.0976 25.0545 22.6845 25.098 23.275 25.0944C23.6699 25.0944 24.072 25.0944 24.4814 25.069C24.8582 25.0545 25.2313 25.0147 25.6008 24.9567V21.8629C25.4052 21.9027 25.2096 21.9317 25.0103 21.9498C24.8038 21.9752 24.5865 21.9824 24.3618 21.9824Z" fill="#003D4F"/>
<path id="Vector_12" d="M156.306 10.0419C152.955 10.0419 151.669 13.1321 151.669 13.1321H151.614V10.4332H147.821V24.9531H151.81V18.8814C151.81 15.342 152.498 13.7625 155.516 13.7625C156.059 13.7552 156.596 13.882 157.077 14.1356L158.787 10.7773C158.052 10.2919 157.19 10.0383 156.306 10.0419Z" fill="#003D4F"/>
<path id="Vector_13" d="M128.552 10.4368L125.878 20.2689H125.824L123.35 10.4368H119.473L117.053 20.3015H116.999L114.333 10.4368L111.731 15.5303L114.727 24.9639H118.854L121.328 15.2079H121.382L123.969 24.9639H128.074L132.653 10.4368H128.552Z" fill="#003D4F"/>
</g>
</g>
</svg>
